<svg xmlns="http://www.w3.org/2000/svg" xmlns:xlink="http://www.w3.org/1999/xlink" width="500" zoomAndPan="magnify" viewBox="0 0 375 374.999991" height="500" preserveAspectRatio="xMidYMid meet" version="1.0"><defs><g/><clipPath id="4c93d64d77"><path d="M 241.148438 135.1875 L 370.753906 135.1875 L 370.753906 221.855469 L 241.148438 221.855469 Z M 241.148438 135.1875 " clip-rule="nonzero"/></clipPath></defs><g clip-path="url(#4c93d64d77)"><path fill="#000000" d="M 241.148438 135.1875 L 370.753906 135.1875 L 370.753906 221.855469 L 241.148438 221.855469 Z M 241.148438 135.1875 " fill-opacity="1" fill-rule="nonzero"/></g><g fill="#000000" fill-opacity="1"><g transform="translate(9.607387, 211.874986)"><g><path d="M 1.3125 0 L 7.53125 0 L 7.53125 -15.972656 L 8.847656 -15.972656 C 13.191406 -15.972656 16.023438 -17.589844 16.074219 -22.292969 L 16.074219 -62.527344 C 16.074219 -67.230469 13.242188 -68.746094 8.542969 -68.746094 L 1.3125 -68.746094 Z M 7.277344 -20.472656 L 7.277344 -63.992188 L 8.644531 -63.992188 C 9.65625 -63.992188 10.160156 -63.488281 10.160156 -62.375 L 10.160156 -22.191406 C 10.160156 -20.976562 9.65625 -20.472656 8.695312 -20.472656 Z M 7.277344 -20.472656 "/></g></g></g><g fill="#000000" fill-opacity="1"><g transform="translate(32.740885, 211.874986)"><g><path d="M 1.3125 0 L 12.941406 0 L 12.941406 -4.601562 L 7.582031 -4.601562 L 7.582031 -32.199219 L 11.777344 -32.199219 L 11.777344 -36.140625 L 7.582031 -36.140625 L 7.582031 -64.042969 L 12.890625 -64.042969 L 12.890625 -68.746094 L 1.3125 -68.746094 Z M 1.3125 0 "/></g></g></g><g fill="#000000" fill-opacity="1"><g transform="translate(51.72987, 211.874986)"><g><path d="M 1.3125 0 L 6.875 0 L 5.460938 -50.296875 L 5.863281 -50.246094 L 8.746094 -10.515625 L 9.804688 0 L 16.226562 0 L 16.226562 -68.746094 L 10.613281 -68.746094 L 11.929688 -19.257812 L 11.523438 -19.257812 L 8.746094 -58.179688 L 7.734375 -68.746094 L 1.3125 -68.746094 Z M 1.3125 0 "/></g></g></g><g fill="#000000" fill-opacity="1"><g transform="translate(75.065539, 211.874986)"><g><path d="M 3.132812 0 L 9.351562 0 L 9.351562 -63.742188 L 12.234375 -63.742188 L 12.234375 -68.746094 L 0.304688 -68.746094 L 0.304688 -63.742188 L 3.132812 -63.742188 Z M 3.132812 0 "/></g></g></g><g fill="#000000" fill-opacity="1"><g transform="translate(93.397462, 211.874986)"><g><path d="M 1.3125 0 L 12.941406 0 L 12.941406 -4.601562 L 7.582031 -4.601562 L 7.582031 -32.199219 L 11.777344 -32.199219 L 11.777344 -36.140625 L 7.582031 -36.140625 L 7.582031 -64.042969 L 12.890625 -64.042969 L 12.890625 -68.746094 L 1.3125 -68.746094 Z M 1.3125 0 "/></g></g></g><g fill="#000000" fill-opacity="1"><g transform="translate(112.386448, 211.874986)"><g><path d="M 8.894531 0.65625 C 13.902344 0.65625 16.527344 -1.769531 16.679688 -6.519531 L 16.679688 -32.753906 L 10.3125 -32.753906 L 10.3125 -6.167969 C 10.3125 -5.207031 9.804688 -4.699219 8.894531 -4.699219 C 7.988281 -4.699219 7.480469 -5.207031 7.480469 -6.167969 L 7.480469 -62.578125 C 7.480469 -63.539062 7.988281 -64.042969 8.894531 -64.042969 C 9.804688 -64.042969 10.3125 -63.539062 10.3125 -62.578125 L 10.3125 -35.941406 L 16.679688 -35.941406 L 16.679688 -62.175781 C 16.578125 -66.925781 13.953125 -69.351562 8.894531 -69.351562 C 3.792969 -69.351562 1.164062 -66.875 1.164062 -62.023438 L 1.164062 -6.722656 C 1.164062 -1.820312 3.792969 0.65625 8.894531 0.65625 Z M 8.894531 0.65625 "/></g></g></g><g fill="#000000" fill-opacity="1"><g transform="translate(136.025374, 211.874986)"><g><path d="M 1.164062 -6.722656 C 1.71875 -1.871094 3.792969 0.65625 8.945312 0.65625 C 14.050781 0.65625 16.679688 -1.820312 16.679688 -6.722656 L 16.679688 -62.023438 C 16.679688 -66.875 14.050781 -69.351562 8.945312 -69.351562 C 3.792969 -69.351562 1.164062 -66.875 1.164062 -62.425781 Z M 7.53125 -6.167969 L 7.53125 -62.578125 C 7.53125 -63.539062 8.039062 -64.042969 8.945312 -64.042969 C 9.855469 -64.042969 10.363281 -63.539062 10.363281 -62.578125 L 10.363281 -6.167969 C 10.363281 -5.207031 9.855469 -4.699219 8.945312 -4.699219 C 8.039062 -4.699219 7.53125 -5.207031 7.53125 -6.167969 Z M 7.53125 -6.167969 "/></g></g></g><g fill="#000000" fill-opacity="1"><g transform="translate(159.664299, 211.874986)"><g><path d="M 8.695312 0.707031 C 12.992188 0.707031 15.667969 -1.265625 15.71875 -5.15625 L 15.71875 -9.25 C 15.71875 -36.140625 9.046875 -39.578125 7.480469 -55.957031 C 7.226562 -58.179688 7.128906 -60.65625 7.128906 -63.335938 C 7.128906 -64.296875 7.632812 -64.800781 8.542969 -64.800781 C 9.453125 -64.800781 9.957031 -64.296875 9.957031 -63.386719 L 9.957031 -50.144531 L 15.570312 -50.144531 L 15.570312 -63.335938 C 15.519531 -67.128906 13.242188 -69.351562 8.339844 -69.351562 C 3.839844 -69.351562 1.363281 -67.53125 1.3125 -63.285156 L 1.3125 -60.152344 C 1.3125 -40.4375 7.988281 -39.378906 9.554688 -16.226562 C 9.804688 -13.09375 9.90625 -9.402344 9.90625 -5.308594 C 9.90625 -4.398438 9.402344 -3.839844 8.441406 -3.839844 C 7.53125 -3.839844 7.027344 -4.449219 7.027344 -5.308594 L 7.027344 -22.949219 L 1.3125 -22.949219 L 1.3125 -5.359375 C 1.3125 -1.820312 3.183594 0.707031 8.695312 0.707031 Z M 8.695312 0.707031 "/></g></g></g><g fill="#000000" fill-opacity="1"><g transform="translate(182.443992, 211.874986)"><g><path d="M 3.132812 0 L 9.351562 0 L 9.351562 -63.742188 L 12.234375 -63.742188 L 12.234375 -68.746094 L 0.304688 -68.746094 L 0.304688 -63.742188 L 3.132812 -63.742188 Z M 3.132812 0 "/></g></g></g><g fill="#000000" fill-opacity="1"><g transform="translate(200.775915, 211.874986)"><g><path d="M 9.90625 0 L 16.125 0 L 12.03125 -68.746094 L 4.550781 -68.746094 L 0.503906 0 L 6.671875 0 L 6.976562 -11.675781 L 9.605469 -11.675781 Z M 7.128906 -15.820312 L 8.136719 -53.683594 L 8.441406 -53.683594 L 9.453125 -15.820312 Z M 7.128906 -15.820312 "/></g></g></g><g fill="#000000" fill-opacity="1"><g transform="translate(223.201825, 211.874986)"><g><path d="M 1.3125 0 L 11.726562 0 L 11.726562 -4.851562 L 7.53125 -4.851562 L 7.53125 -68.746094 L 1.3125 -68.746094 Z M 1.3125 0 "/></g></g></g><g fill="#ffffff" fill-opacity="1"><g transform="translate(241.427684, 211.874986)"><g/></g></g><g fill="#ffffff" fill-opacity="1"><g transform="translate(256.221609, 211.874986)"><g><path d="M 3.132812 0 L 9.351562 0 L 9.351562 -63.742188 L 12.234375 -63.742188 L 12.234375 -68.746094 L 0.304688 -68.746094 L 0.304688 -63.742188 L 3.132812 -63.742188 Z M 3.132812 0 "/></g></g></g><g fill="#ffffff" fill-opacity="1"><g transform="translate(274.553532, 211.874986)"><g><path d="M 16.074219 -32.804688 L 16.074219 -62.527344 C 16.074219 -67.230469 13.242188 -68.746094 8.542969 -68.746094 L 1.3125 -68.746094 L 1.3125 0 L 7.277344 0 L 7.277344 -26.640625 L 9.148438 -26.640625 L 10.109375 0 L 16.074219 0 L 14.355469 -28.207031 C 15.46875 -29.21875 16.074219 -30.683594 16.074219 -32.804688 Z M 8.695312 -30.785156 L 7.277344 -30.785156 L 7.277344 -63.992188 L 8.644531 -63.992188 C 9.65625 -63.992188 10.160156 -63.488281 10.160156 -62.375 L 10.160156 -32.703125 C 10.160156 -31.390625 9.65625 -30.785156 8.695312 -30.785156 Z M 8.695312 -30.785156 "/></g></g></g><g fill="#ffffff" fill-opacity="1"><g transform="translate(297.585945, 211.874986)"><g><path d="M 8.796875 0.707031 C 13.75 0.707031 16.328125 -1.363281 16.328125 -5.460938 L 16.328125 -68.746094 L 10.210938 -68.746094 L 10.210938 -5.964844 C 10.210938 -4.851562 9.707031 -4.246094 8.796875 -4.246094 C 7.886719 -4.246094 7.378906 -4.851562 7.378906 -5.964844 L 7.378906 -68.746094 L 1.265625 -68.746094 L 1.265625 -5.460938 C 1.265625 -1.363281 3.792969 0.707031 8.796875 0.707031 Z M 8.796875 0.707031 "/></g></g></g><g fill="#ffffff" fill-opacity="1"><g transform="translate(320.921613, 211.874986)"><g><path d="M 3.132812 0 L 9.351562 0 L 9.351562 -63.742188 L 12.234375 -63.742188 L 12.234375 -68.746094 L 0.304688 -68.746094 L 0.304688 -63.742188 L 3.132812 -63.742188 Z M 3.132812 0 "/></g></g></g><g fill="#ffffff" fill-opacity="1"><g transform="translate(339.253537, 211.874986)"><g><path d="M 1.3125 0 L 7.378906 0 L 7.378906 -31.945312 L 10.210938 -31.945312 L 10.210938 0 L 16.328125 0 L 16.328125 -68.746094 L 10.210938 -68.746094 L 10.210938 -36.648438 L 7.378906 -36.648438 L 7.378906 -68.746094 L 1.3125 -68.746094 Z M 1.3125 0 "/></g></g></g><path stroke-linecap="butt" transform="matrix(0.749456, 0.00246089, -0.00246267, 0.749996, 8.500518, 229.495298)" fill="none" stroke-linejoin="miter" d="M 0.000672298 2.00107 L 477.34701 2.002514 " stroke="#000000" stroke-width="4" stroke-opacity="1" stroke-miterlimit="4"/></svg>