<svg xmlns="http://www.w3.org/2000/svg" xmlns:xlink="http://www.w3.org/1999/xlink" width="500" zoomAndPan="magnify" viewBox="0 0 375 149.999998" height="200" preserveAspectRatio="xMidYMid meet" version="1.0"><defs><g/><clipPath id="2a0ba369f7"><path d="M 239.398438 32.3125 L 364.777344 32.3125 L 364.777344 116.152344 L 239.398438 116.152344 Z M 239.398438 32.3125 " clip-rule="nonzero"/></clipPath></defs><g clip-path="url(#2a0ba369f7)"><path fill="#000000" d="M 239.398438 32.3125 L 364.777344 32.3125 L 364.777344 116.152344 L 239.398438 116.152344 Z M 239.398438 32.3125 " fill-opacity="1" fill-rule="nonzero"/></g><g fill="#000000" fill-opacity="1"><g transform="translate(15.408794, 106.498158)"><g><path d="M 1.269531 0 L 7.285156 0 L 7.285156 -15.453125 L 8.558594 -15.453125 C 12.761719 -15.453125 15.5 -17.015625 15.550781 -21.566406 L 15.550781 -60.488281 C 15.550781 -65.035156 12.8125 -66.503906 8.265625 -66.503906 L 1.269531 -66.503906 Z M 7.042969 -19.804688 L 7.042969 -61.90625 L 8.363281 -61.90625 C 9.339844 -61.90625 9.828125 -61.417969 9.828125 -60.34375 L 9.828125 -21.46875 C 9.828125 -20.292969 9.339844 -19.804688 8.410156 -19.804688 Z M 7.042969 -19.804688 "/></g></g></g><g fill="#000000" fill-opacity="1"><g transform="translate(37.787866, 106.498158)"><g><path d="M 1.269531 0 L 12.519531 0 L 12.519531 -4.449219 L 7.335938 -4.449219 L 7.335938 -31.148438 L 11.394531 -31.148438 L 11.394531 -34.964844 L 7.335938 -34.964844 L 7.335938 -61.957031 L 12.46875 -61.957031 L 12.46875 -66.503906 L 1.269531 -66.503906 Z M 1.269531 0 "/></g></g></g><g fill="#000000" fill-opacity="1"><g transform="translate(56.157586, 106.498158)"><g><path d="M 1.269531 0 L 6.648438 0 L 5.28125 -48.65625 L 5.671875 -48.605469 L 8.460938 -10.171875 L 9.488281 0 L 15.695312 0 L 15.695312 -66.503906 L 10.269531 -66.503906 L 11.539062 -18.628906 L 11.148438 -18.628906 L 8.460938 -56.285156 L 7.480469 -66.503906 L 1.269531 -66.503906 Z M 1.269531 0 "/></g></g></g><g fill="#000000" fill-opacity="1"><g transform="translate(78.732236, 106.498158)"><g><path d="M 3.03125 0 L 9.046875 0 L 9.046875 -61.664062 L 11.832031 -61.664062 L 11.832031 -66.503906 L 0.292969 -66.503906 L 0.292969 -61.664062 L 3.03125 -61.664062 Z M 3.03125 0 "/></g></g></g><g fill="#000000" fill-opacity="1"><g transform="translate(96.466321, 106.498158)"><g><path d="M 1.269531 0 L 12.519531 0 L 12.519531 -4.449219 L 7.335938 -4.449219 L 7.335938 -31.148438 L 11.394531 -31.148438 L 11.394531 -34.964844 L 7.335938 -34.964844 L 7.335938 -61.957031 L 12.46875 -61.957031 L 12.46875 -66.503906 L 1.269531 -66.503906 Z M 1.269531 0 "/></g></g></g><g fill="#000000" fill-opacity="1"><g transform="translate(114.836041, 106.498158)"><g><path d="M 8.605469 0.636719 C 13.449219 0.636719 15.988281 -1.710938 16.136719 -6.308594 L 16.136719 -31.6875 L 9.976562 -31.6875 L 9.976562 -5.964844 C 9.976562 -5.035156 9.488281 -4.546875 8.605469 -4.546875 C 7.726562 -4.546875 7.238281 -5.035156 7.238281 -5.964844 L 7.238281 -60.539062 C 7.238281 -61.46875 7.726562 -61.957031 8.605469 -61.957031 C 9.488281 -61.957031 9.976562 -61.46875 9.976562 -60.539062 L 9.976562 -34.769531 L 16.136719 -34.769531 L 16.136719 -60.148438 C 16.039062 -64.742188 13.496094 -67.089844 8.605469 -67.089844 C 3.667969 -67.089844 1.125 -64.695312 1.125 -60 L 1.125 -6.503906 C 1.125 -1.761719 3.667969 0.636719 8.605469 0.636719 Z M 8.605469 0.636719 "/></g></g></g><g fill="#000000" fill-opacity="1"><g transform="translate(137.704059, 106.498158)"><g><path d="M 1.125 -6.503906 C 1.664062 -1.808594 3.667969 0.636719 8.65625 0.636719 C 13.59375 0.636719 16.136719 -1.761719 16.136719 -6.503906 L 16.136719 -60 C 16.136719 -64.695312 13.59375 -67.089844 8.65625 -67.089844 C 3.667969 -67.089844 1.125 -64.695312 1.125 -60.390625 Z M 7.285156 -5.964844 L 7.285156 -60.539062 C 7.285156 -61.46875 7.773438 -61.957031 8.65625 -61.957031 C 9.535156 -61.957031 10.023438 -61.46875 10.023438 -60.539062 L 10.023438 -5.964844 C 10.023438 -5.035156 9.535156 -4.546875 8.65625 -4.546875 C 7.773438 -4.546875 7.285156 -5.035156 7.285156 -5.964844 Z M 7.285156 -5.964844 "/></g></g></g><g fill="#000000" fill-opacity="1"><g transform="translate(160.572076, 106.498158)"><g><path d="M 8.410156 0.683594 C 12.566406 0.683594 15.160156 -1.222656 15.207031 -4.988281 L 15.207031 -8.949219 C 15.207031 -34.964844 8.753906 -38.289062 7.238281 -54.132812 C 6.992188 -56.285156 6.894531 -58.679688 6.894531 -61.269531 C 6.894531 -62.199219 7.382812 -62.6875 8.265625 -62.6875 C 9.144531 -62.6875 9.632812 -62.199219 9.632812 -61.320312 L 9.632812 -48.507812 L 15.0625 -48.507812 L 15.0625 -61.269531 C 15.011719 -64.9375 12.8125 -67.089844 8.070312 -67.089844 C 3.714844 -67.089844 1.320312 -65.328125 1.269531 -61.222656 L 1.269531 -58.191406 C 1.269531 -39.121094 7.726562 -38.09375 9.242188 -15.695312 C 9.488281 -12.664062 9.585938 -9.09375 9.585938 -5.132812 C 9.585938 -4.253906 9.09375 -3.714844 8.167969 -3.714844 C 7.285156 -3.714844 6.796875 -4.304688 6.796875 -5.132812 L 6.796875 -22.199219 L 1.269531 -22.199219 L 1.269531 -5.183594 C 1.269531 -1.761719 3.082031 0.683594 8.410156 0.683594 Z M 8.410156 0.683594 "/></g></g></g><g fill="#000000" fill-opacity="1"><g transform="translate(182.608881, 106.498158)"><g><path d="M 3.03125 0 L 9.046875 0 L 9.046875 -61.664062 L 11.832031 -61.664062 L 11.832031 -66.503906 L 0.292969 -66.503906 L 0.292969 -61.664062 L 3.03125 -61.664062 Z M 3.03125 0 "/></g></g></g><g fill="#000000" fill-opacity="1"><g transform="translate(200.342966, 106.498158)"><g><path d="M 9.585938 0 L 15.597656 0 L 11.636719 -66.503906 L 4.402344 -66.503906 L 0.488281 0 L 6.453125 0 L 6.75 -11.296875 L 9.289062 -11.296875 Z M 6.894531 -15.304688 L 7.871094 -51.929688 L 8.167969 -51.929688 L 9.144531 -15.304688 Z M 6.894531 -15.304688 "/></g></g></g><g fill="#000000" fill-opacity="1"><g transform="translate(222.037526, 106.498158)"><g><path d="M 1.269531 0 L 11.34375 0 L 11.34375 -4.695312 L 7.285156 -4.695312 L 7.285156 -66.503906 L 1.269531 -66.503906 Z M 1.269531 0 "/></g></g></g><g fill="#ffffff" fill-opacity="1"><g transform="translate(239.669006, 106.498158)"><g/></g></g><g fill="#ffffff" fill-opacity="1"><g transform="translate(253.980475, 106.498158)"><g><path d="M 3.03125 0 L 9.046875 0 L 9.046875 -61.664062 L 11.832031 -61.664062 L 11.832031 -66.503906 L 0.292969 -66.503906 L 0.292969 -61.664062 L 3.03125 -61.664062 Z M 3.03125 0 "/></g></g></g><g fill="#ffffff" fill-opacity="1"><g transform="translate(271.71456, 106.498158)"><g><path d="M 15.550781 -31.734375 L 15.550781 -60.488281 C 15.550781 -65.035156 12.8125 -66.503906 8.265625 -66.503906 L 1.269531 -66.503906 L 1.269531 0 L 7.042969 0 L 7.042969 -25.769531 L 8.851562 -25.769531 L 9.78125 0 L 15.550781 0 L 13.886719 -27.285156 C 14.964844 -28.265625 15.550781 -29.683594 15.550781 -31.734375 Z M 8.410156 -29.78125 L 7.042969 -29.78125 L 7.042969 -61.90625 L 8.363281 -61.90625 C 9.339844 -61.90625 9.828125 -61.417969 9.828125 -60.34375 L 9.828125 -31.636719 C 9.828125 -30.367188 9.339844 -29.78125 8.410156 -29.78125 Z M 8.410156 -29.78125 "/></g></g></g><g fill="#ffffff" fill-opacity="1"><g transform="translate(293.995843, 106.498158)"><g><path d="M 8.507812 0.683594 C 13.300781 0.683594 15.792969 -1.320312 15.792969 -5.28125 L 15.792969 -66.503906 L 9.878906 -66.503906 L 9.878906 -5.769531 C 9.878906 -4.695312 9.390625 -4.109375 8.507812 -4.109375 C 7.628906 -4.109375 7.140625 -4.695312 7.140625 -5.769531 L 7.140625 -66.503906 L 1.222656 -66.503906 L 1.222656 -5.28125 C 1.222656 -1.320312 3.667969 0.683594 8.507812 0.683594 Z M 8.507812 0.683594 "/></g></g></g><g fill="#ffffff" fill-opacity="1"><g transform="translate(316.570493, 106.498158)"><g><path d="M 3.03125 0 L 9.046875 0 L 9.046875 -61.664062 L 11.832031 -61.664062 L 11.832031 -66.503906 L 0.292969 -66.503906 L 0.292969 -61.664062 L 3.03125 -61.664062 Z M 3.03125 0 "/></g></g></g><g fill="#ffffff" fill-opacity="1"><g transform="translate(334.304579, 106.498158)"><g><path d="M 1.269531 0 L 7.140625 0 L 7.140625 -30.90625 L 9.878906 -30.90625 L 9.878906 0 L 15.792969 0 L 15.792969 -66.503906 L 9.878906 -66.503906 L 9.878906 -35.453125 L 7.140625 -35.453125 L 7.140625 -66.503906 L 1.269531 -66.503906 Z M 1.269531 0 "/></g></g></g></svg>